<?xml version="1.0" encoding="UTF-8"?>
<svg width="700pt" height="700pt" version="1.1" viewBox="0 0 700 700" xmlns="http://www.w3.org/2000/svg" xmlns:xlink="http://www.w3.org/1999/xlink">
 <defs>
  <symbol id="t" overflow="visible">
   <path d="m18.766-1.125c-0.96875 0.5-1.9805 0.875-3.0312 1.125-1.043 0.25781-2.1367 0.39062-3.2812 0.39062-3.3984 0-6.0898-0.94531-8.0781-2.8438-1.9922-1.9062-2.9844-4.4844-2.9844-7.7344 0-3.2578 0.99219-5.8359 2.9844-7.7344 1.9883-1.9062 4.6797-2.8594 8.0781-2.8594 1.1445 0 2.2383 0.13281 3.2812 0.39062 1.0508 0.25 2.0625 0.625 3.0312 1.125v4.2188c-0.98047-0.65625-1.9453-1.1406-2.8906-1.4531-0.94922-0.3125-1.9492-0.46875-3-0.46875-1.875 0-3.3516 0.60547-4.4219 1.8125-1.0742 1.1992-1.6094 2.8555-1.6094 4.9688 0 2.1055 0.53516 3.7617 1.6094 4.9688 1.0703 1.1992 2.5469 1.7969 4.4219 1.7969 1.0508 0 2.0508-0.14844 3-0.45312 0.94531-0.3125 1.9102-0.80078 2.8906-1.4688z"/>
  </symbol>
  <symbol id="a" overflow="visible">
   <path d="m13.734-11.141c-0.4375-0.19531-0.87109-0.34375-1.2969-0.4375-0.41797-0.10156-0.83984-0.15625-1.2656-0.15625-1.2617 0-2.2305 0.40625-2.9062 1.2188-0.67969 0.80469-1.0156 1.9531-1.0156 3.4531v7.0625h-4.8906v-15.312h4.8906v2.5156c0.625-1 1.3438-1.7266 2.1562-2.1875 0.82031-0.46875 1.8008-0.70312 2.9375-0.70312 0.16406 0 0.34375 0.011719 0.53125 0.03125 0.19531 0.011719 0.47656 0.039062 0.84375 0.078125z"/>
  </symbol>
  <symbol id="d" overflow="visible">
   <path d="m17.641-7.7031v1.4062h-11.453c0.125 1.1484 0.53906 2.0078 1.25 2.5781 0.70703 0.57422 1.7031 0.85938 2.9844 0.85938 1.0312 0 2.082-0.14844 3.1562-0.45312 1.082-0.3125 2.1914-0.77344 3.3281-1.3906v3.7656c-1.1562 0.4375-2.3125 0.76562-3.4688 0.98438-1.1562 0.22656-2.3125 0.34375-3.4688 0.34375-2.7734 0-4.9297-0.70312-6.4688-2.1094-1.5312-1.4062-2.2969-3.3789-2.2969-5.9219 0-2.5 0.75391-4.4609 2.2656-5.8906 1.5078-1.4375 3.582-2.1562 6.2188-2.1562 2.4062 0 4.332 0.73047 5.7812 2.1875 1.4453 1.4492 2.1719 3.3828 2.1719 5.7969zm-5.0312-1.625c0-0.92578-0.27344-1.6719-0.8125-2.2344-0.54297-0.57031-1.25-0.85938-2.125-0.85938-0.94922 0-1.7188 0.26562-2.3125 0.79688s-0.96484 1.2969-1.1094 2.2969z"/>
  </symbol>
  <symbol id="c" overflow="visible">
   <path d="m9.2188-6.8906c-1.0234 0-1.793 0.17188-2.3125 0.51562-0.51172 0.34375-0.76562 0.85547-0.76562 1.5312 0 0.625 0.20703 1.1172 0.625 1.4688 0.41406 0.34375 0.98828 0.51562 1.7188 0.51562 0.92578 0 1.7031-0.32812 2.3281-0.98438 0.63281-0.66406 0.95312-1.4922 0.95312-2.4844v-0.5625zm7.4688-1.8438v8.7344h-4.9219v-2.2656c-0.65625 0.92969-1.3984 1.6055-2.2188 2.0312-0.82422 0.41406-1.8242 0.625-3 0.625-1.5859 0-2.8711-0.45703-3.8594-1.375-0.99219-0.92578-1.4844-2.1289-1.4844-3.6094 0-1.7891 0.61328-3.1016 1.8438-3.9375 1.2383-0.84375 3.1797-1.2656 5.8281-1.2656h2.8906v-0.39062c0-0.76953-0.30859-1.332-0.92188-1.6875-0.61719-0.36328-1.5703-0.54688-2.8594-0.54688-1.0547 0-2.0312 0.10547-2.9375 0.3125-0.89844 0.21094-1.7305 0.52344-2.5 0.9375v-3.7344c1.0391-0.25 2.0859-0.44141 3.1406-0.57812 1.0625-0.13281 2.125-0.20312 3.1875-0.20312 2.7578 0 4.75 0.54688 5.9688 1.6406 1.2266 1.0859 1.8438 2.8555 1.8438 5.3125z"/>
  </symbol>
  <symbol id="b" overflow="visible">
   <path d="m7.7031-19.656v4.3438h5.0469v3.5h-5.0469v6.5c0 0.71094 0.14062 1.1875 0.42188 1.4375s0.83594 0.375 1.6719 0.375h2.5156v3.5h-4.1875c-1.9375 0-3.3125-0.39844-4.125-1.2031-0.80469-0.8125-1.2031-2.1797-1.2031-4.1094v-6.5h-2.4219v-3.5h2.4219v-4.3438z"/>
  </symbol>
  <symbol id="k" overflow="visible">
   <path d="m12.766-13.078v-8.2031h4.9219v21.281h-4.9219v-2.2188c-0.66797 0.90625-1.4062 1.5703-2.2188 1.9844s-1.7578 0.625-2.8281 0.625c-1.8867 0-3.4336-0.75-4.6406-2.25-1.2109-1.5-1.8125-3.4258-1.8125-5.7812 0-2.3633 0.60156-4.2969 1.8125-5.7969 1.207-1.5 2.7539-2.25 4.6406-2.25 1.0625 0 2 0.21484 2.8125 0.64062 0.82031 0.42969 1.5664 1.0859 2.2344 1.9688zm-3.2188 9.9219c1.0391 0 1.8359-0.37891 2.3906-1.1406 0.55078-0.76953 0.82812-1.8828 0.82812-3.3438 0-1.457-0.27734-2.5664-0.82812-3.3281-0.55469-0.76953-1.3516-1.1562-2.3906-1.1562-1.043 0-1.8398 0.38672-2.3906 1.1562-0.55469 0.76172-0.82812 1.8711-0.82812 3.3281 0 1.4609 0.27344 2.5742 0.82812 3.3438 0.55078 0.76172 1.3477 1.1406 2.3906 1.1406z"/>
  </symbol>
  <symbol id="j" overflow="visible">
   <path d="m10.5-3.1562c1.0508 0 1.8516-0.37891 2.4062-1.1406 0.55078-0.76953 0.82812-1.8828 0.82812-3.3438 0-1.457-0.27734-2.5664-0.82812-3.3281-0.55469-0.76953-1.3555-1.1562-2.4062-1.1562-1.0547 0-1.8594 0.38672-2.4219 1.1562-0.55469 0.77344-0.82812 1.8828-0.82812 3.3281 0 1.4492 0.27344 2.5586 0.82812 3.3281 0.5625 0.77344 1.3672 1.1562 2.4219 1.1562zm-3.25-9.9219c0.67578-0.88281 1.4219-1.5391 2.2344-1.9688 0.82031-0.42578 1.7656-0.64062 2.8281-0.64062 1.8945 0 3.4453 0.75 4.6562 2.25 1.207 1.5 1.8125 3.4336 1.8125 5.7969 0 2.3555-0.60547 4.2812-1.8125 5.7812-1.2109 1.5-2.7617 2.25-4.6562 2.25-1.0625 0-2.0078-0.21094-2.8281-0.625-0.8125-0.42578-1.5586-1.0859-2.2344-1.9844v2.2188h-4.8906v-21.281h4.8906z"/>
  </symbol>
  <symbol id="i" overflow="visible">
   <path d="m0.34375-15.312h4.8906l4.125 10.391 3.5-10.391h4.8906l-6.4375 16.766c-0.64844 1.6953-1.4023 2.8828-2.2656 3.5625-0.86719 0.6875-2 1.0312-3.4062 1.0312h-2.8438v-3.2188h1.5312c0.83203 0 1.4375-0.13672 1.8125-0.40625 0.38281-0.26172 0.67969-0.73047 0.89062-1.4062l0.14062-0.42188z"/>
  </symbol>
  <symbol id="f" overflow="visible">
   <path d="m2.5781-20.406h6.6875l4.6562 10.922 4.6719-10.922h6.6875v20.406h-4.9844v-14.938l-4.7031 11.016h-3.3281l-4.7031-11.016v14.938h-4.9844z"/>
  </symbol>
  <symbol id="s" overflow="visible">
   <path d="m2.3594-15.312h4.8906v15.312h-4.8906zm0-5.9688h4.8906v4h-4.8906z"/>
  </symbol>
  <symbol id="h" overflow="visible">
   <path d="m17.75-9.3281v9.3281h-4.9219v-7.1406c0-1.3203-0.03125-2.2344-0.09375-2.7344s-0.16797-0.86719-0.3125-1.1094c-0.1875-0.3125-0.44922-0.55469-0.78125-0.73438-0.32422-0.17578-0.69531-0.26562-1.1094-0.26562-1.0234 0-1.8242 0.39844-2.4062 1.1875-0.58594 0.78125-0.875 1.8711-0.875 3.2656v7.5312h-4.8906v-15.312h4.8906v2.2344c0.73828-0.88281 1.5195-1.5391 2.3438-1.9688 0.83203-0.42578 1.75-0.64062 2.75-0.64062 1.7695 0 3.1133 0.54688 4.0312 1.6406 0.91406 1.0859 1.375 2.6562 1.375 4.7188z"/>
  </symbol>
  <symbol id="g" overflow="visible">
   <path d="m17.75-9.3281v9.3281h-4.9219v-7.1094c0-1.3438-0.03125-2.2656-0.09375-2.7656s-0.16797-0.86719-0.3125-1.1094c-0.1875-0.3125-0.44922-0.55469-0.78125-0.73438-0.32422-0.17578-0.69531-0.26562-1.1094-0.26562-1.0234 0-1.8242 0.39844-2.4062 1.1875-0.58594 0.78125-0.875 1.8711-0.875 3.2656v7.5312h-4.8906v-21.281h4.8906v8.2031c0.73828-0.88281 1.5195-1.5391 2.3438-1.9688 0.83203-0.42578 1.75-0.64062 2.75-0.64062 1.7695 0 3.1133 0.54688 4.0312 1.6406 0.91406 1.0859 1.375 2.6562 1.375 4.7188z"/>
  </symbol>
  <symbol id="e" overflow="visible">
   <path d="m9.6406-12.188c-1.0859 0-1.9141 0.39062-2.4844 1.1719-0.57422 0.78125-0.85938 1.9062-0.85938 3.375s0.28516 2.5938 0.85938 3.375c0.57031 0.77344 1.3984 1.1562 2.4844 1.1562 1.0625 0 1.875-0.38281 2.4375-1.1562 0.57031-0.78125 0.85938-1.9062 0.85938-3.375s-0.28906-2.5938-0.85938-3.375c-0.5625-0.78125-1.375-1.1719-2.4375-1.1719zm0-3.5c2.6328 0 4.6914 0.71484 6.1719 2.1406 1.4766 1.418 2.2188 3.3867 2.2188 5.9062 0 2.5117-0.74219 4.4805-2.2188 5.9062-1.4805 1.418-3.5391 2.125-6.1719 2.125-2.6484 0-4.7148-0.70703-6.2031-2.125-1.4922-1.4258-2.2344-3.3945-2.2344-5.9062 0-2.5195 0.74219-4.4883 2.2344-5.9062 1.4883-1.4258 3.5547-2.1406 6.2031-2.1406z"/>
  </symbol>
  <symbol id="r" overflow="visible">
   <path d="m12.422-21.281v3.2188h-2.7031c-0.6875 0-1.1719 0.125-1.4531 0.375-0.27344 0.25-0.40625 0.6875-0.40625 1.3125v1.0625h4.1875v3.5h-4.1875v11.812h-4.8906v-11.812h-2.4375v-3.5h2.4375v-1.0625c0-1.6641 0.46094-2.8984 1.3906-3.7031 0.92578-0.80078 2.3672-1.2031 4.3281-1.2031z"/>
  </symbol>
  <symbol id="q" overflow="visible">
   <path d="m16.547-12.766c0.61328-0.94531 1.3477-1.6719 2.2031-2.1719 0.85156-0.5 1.7891-0.75 2.8125-0.75 1.7578 0 3.0977 0.54688 4.0156 1.6406 0.92578 1.0859 1.3906 2.6562 1.3906 4.7188v9.3281h-4.9219v-7.9844-0.35938c0.007813-0.13281 0.015625-0.32031 0.015625-0.5625 0-1.082-0.16406-1.8633-0.48438-2.3438-0.3125-0.48828-0.82422-0.73438-1.5312-0.73438-0.92969 0-1.6484 0.38672-2.1562 1.1562-0.51172 0.76172-0.77344 1.8672-0.78125 3.3125v7.5156h-4.9219v-7.9844c0-1.6953-0.14844-2.7852-0.4375-3.2656-0.29297-0.48828-0.8125-0.73438-1.5625-0.73438-0.9375 0-1.6641 0.38672-2.1719 1.1562-0.51172 0.76172-0.76562 1.8594-0.76562 3.2969v7.5312h-4.9219v-15.312h4.9219v2.2344c0.60156-0.86328 1.2891-1.5156 2.0625-1.9531 0.78125-0.4375 1.6406-0.65625 2.5781-0.65625 1.0625 0 2 0.25781 2.8125 0.76562 0.8125 0.51172 1.4258 1.2305 1.8438 2.1562z"/>
  </symbol>
  <symbol id="p" overflow="visible">
   <path d="m2.5781-20.406h5.875l7.4219 14v-14h4.9844v20.406h-5.875l-7.4219-14v14h-4.9844z"/>
  </symbol>
  <symbol id="o" overflow="visible">
   <path d="m2.1875-5.9688v-9.3438h4.9219v1.5312c0 0.83594-0.007813 1.875-0.015625 3.125-0.011719 1.25-0.015625 2.0859-0.015625 2.5 0 1.2422 0.03125 2.1328 0.09375 2.6719 0.070313 0.54297 0.17969 0.93359 0.32812 1.1719 0.20703 0.32422 0.47266 0.57422 0.79688 0.75 0.32031 0.16797 0.69141 0.25 1.1094 0.25 1.0195 0 1.8203-0.39062 2.4062-1.1719 0.58203-0.78125 0.875-1.8672 0.875-3.2656v-7.5625h4.8906v15.312h-4.8906v-2.2188c-0.74219 0.89844-1.5234 1.5586-2.3438 1.9844-0.82422 0.41406-1.7344 0.625-2.7344 0.625-1.7617 0-3.1055-0.53906-4.0312-1.625-0.92969-1.082-1.3906-2.6602-1.3906-4.7344z"/>
  </symbol>
  <symbol id="n" overflow="visible">
   <path d="m2.5781-20.406h8.7344c2.5938 0 4.582 0.57812 5.9688 1.7344 1.3945 1.1484 2.0938 2.7891 2.0938 4.9219 0 2.1367-0.69922 3.7812-2.0938 4.9375-1.3867 1.1562-3.375 1.7344-5.9688 1.7344h-3.4844v7.0781h-5.25zm5.25 3.8125v5.7031h2.9219c1.0195 0 1.8047-0.25 2.3594-0.75 0.5625-0.5 0.84375-1.2031 0.84375-2.1094 0-0.91406-0.28125-1.6172-0.84375-2.1094-0.55469-0.48828-1.3398-0.73438-2.3594-0.73438z"/>
  </symbol>
  <symbol id="m" overflow="visible">
   <path d="m2.3594-15.312h4.8906v15.031c0 2.0508-0.49609 3.6172-1.4844 4.7031-0.98047 1.082-2.4062 1.625-4.2812 1.625h-2.4219v-3.2188h0.85938c0.92578 0 1.5625-0.21094 1.9062-0.625 0.35156-0.41797 0.53125-1.2461 0.53125-2.4844zm0-5.9688h4.8906v4h-4.8906z"/>
  </symbol>
  <symbol id="l" overflow="visible">
   <path d="m14.719-14.828v3.9844c-0.65625-0.45703-1.3242-0.79688-2-1.0156-0.66797-0.21875-1.3594-0.32812-2.0781-0.32812-1.3672 0-2.4336 0.40234-3.2031 1.2031-0.76172 0.79297-1.1406 1.9062-1.1406 3.3438 0 1.4297 0.37891 2.543 1.1406 3.3438 0.76953 0.79297 1.8359 1.1875 3.2031 1.1875 0.75781 0 1.4844-0.10938 2.1719-0.32812 0.6875-0.22656 1.3203-0.56641 1.9062-1.0156v4c-0.76172 0.28125-1.5391 0.48828-2.3281 0.625-0.78125 0.14453-1.5742 0.21875-2.375 0.21875-2.7617 0-4.9219-0.70703-6.4844-2.125-1.5547-1.4141-2.3281-3.3828-2.3281-5.9062 0-2.5312 0.77344-4.5039 2.3281-5.9219 1.5625-1.4141 3.7227-2.125 6.4844-2.125 0.80078 0 1.5938 0.074219 2.375 0.21875 0.78125 0.13672 1.5547 0.35156 2.3281 0.64062z"/>
  </symbol>
 </defs>
 <g>
  <path d="m392.57 247.48c-20.301-11.652-37.766 7.0664-49.965 21.32-15.434 18.031-28.48 37.727-45.641 54.27-17.09 16.48-36.746 30.258-57.289 42.086-15.691 9.0312-30.754 18.434-32.363 38.383 6.7266 0.12891 14.695-3.7617 20.43-6.9883 17.969-10.109 31.77-23.742 46.711-37.895 15.574-14.75 30.996-29.715 44.855-46.109 12-14.195 23.234-29.344 38.129-40.723 5.6328-4.3008 12.156-6.0859 19.117-6.7812 6.1445-0.61719 18.375 0.72266 20.395-7.1836 1.2812-5.0117-0.77734-8.3125-4.3789-10.379z"/>
  <path d="m427.03 257.83c8.4609-8.3477 3.0469-28.941-10.465-28-5.375 0.38672-4.8164 7.2812-4.3164 11.285 0.75 5.9766 5.5859 25.781 14.781 16.715z"/>
  <path d="m406.4 227.12c-4.1328 0.33984-7.8516 2.1953-9.6641 6.8828-1.1992 3.0977 0.054687 6.5391 1.0195 9.5195 1.2891 3.9922 2.582 8.0469 2.9805 12.242 0.33203 3.5117-0.99219 10.293 3.1875 12.09 3.5 1.5 10.426-1.5977 10.668-5.5547 0.23438-3.9375-2.918-10.723-4.543-14.312-3.6133-7.9688-4.043-15.215 3.5117-20.238-2.3438-0.53125-4.8203-0.82031-7.1602-0.62891z"/>
  <path d="m567.82 383.19c-0.35156-2.1953-0.99219-4.3164-1.8359-6.3281-0.5-1.1523-0.88672-1.8711-1.3281-2.8281-0.53125-0.94531-1.0742-1.9258-1.6367-2.8438-4.5469-7.1953-10.762-12.828-17.129-17.742-3.2031-2.457-6.4844-4.7305-9.7617-6.9258l-2.457-1.6289-2.5352-1.5859c-1.6562-1.0195-3.3086-2.0391-4.9492-3.0508-6.8828-3.9414-13.703-7.5273-20.48-10.824-13.57-6.5352-26.734-12.543-38.148-19.707-5.6172-3.6016-10.93-7.6211-15.977-11.602-5.1133-3.9297-9.8164-8.0039-14.93-11.574-10.207-7.043-20.938-11.031-30.504-13.512-4.8086-1.2656-9.375-1.9766-13.508-2.7773-4.1875-0.75-8.0938-1.2891-11.652-1.5-3.5547-0.21094-6.7891-0.11719-9.5586 0.46094-2.7617 0.54688-5.1016 1.7422-6.3672 3.375-1.2891 1.6172-1.4688 3.2461-1.5195 4.2266-0.035156 1.0078 0.039063 1.5195 0.039063 1.5195l0.003906 0.027344c0 0.003906 0.003907 0.003906 0.003907 0.011718 0 0.003907-0.003907 0.003907 0 0.011719 0.035156 0 0.011718 0.48047 0.5 1.4609 0.46875 0.91406 1.4297 2.0703 2.8242 3.3477 1.332 1.3203 3.3086 2.6953 4.8203 4.793 1.4766 2.2695 3.2266 4.8789 5.2734 7.7344 8.1094 11.473 19.891 27.66 34.184 47 3.5898 4.8203 7.2617 9.9414 11.883 14.672 4.5352 4.7305 9.6367 9.2227 15.227 13.367 5.5703 4.168 11.594 8.043 18.055 11.48 1.6016 0.86328 3.2969 1.6914 4.9375 2.4688 1.6172 0.77344 3.2305 1.6133 4.8828 2.4531 3.2891 1.6797 6.6367 3.3594 10.047 4.9844 13.637 6.4727 28.332 12.258 44.078 15.379 7.8672 1.5195 16 2.3906 24.207 1.9531 4.1992-0.16797 8.6523-1.2383 12.465-3.457 3.8516-2.1719 7.1406-5.5508 9.0781-9.6484 1.9766-4.1016 2.5039-8.8125 1.7695-13.191zm-46.746 20.238c-28.195-5.0352-57.793-18.379-81.082-34.977-5.5508-3.9531-10.617-8.2539-15.137-12.789-9.6328-9.6641-16.27-21.594-23.891-32.742-10.125-14.816-22.703-27.562-32.57-42.469-7.7773-11.75 13.895-9.0508 19.336-7.4375 10.188 3.0234 18.988 9.3281 28.453 13.965 7.6484 3.7461 10.793 12.656 14.301 19.75 7.8125 15.793 23.75 25.328 39.109 32.613 17.926 8.5078 33.582 16.152 50.086 27.484 11.188 7.6836 14.855 16.566 18.93 29.398 1.1367 3.5898 3.1602 6.7266 5.6211 8.7461-7.7188 0.53516-15.531-0.17578-23.156-1.543z"/>
  <path d="m502.01 480.8c6.0742-5.3125 7.5-15.004 4.7773-25.344-5.0469-19.168-20.402-35.582-34.332-48.957-9.3203-8.9414-19.074-17.426-28.422-26.344-15.203-14.504-33.047-25.867-48.402-40.512-9.8633-9.4062-17.18-24.684-21.906-37.082-2.0234-5.3086-4.1211-10.523-7.1797-14.965-2.4883-3.6133-8.0469-8.3086-12.312-5.5117-4.0039 2.625-5.5312 9.1406-8.2656 12.918-8.0625 11.145-17.473 21.852-27.547 31.098-9.9414 9.1211-24.109 18.691-31.512 29.949-20.754 31.574 47.32 61.602 65.359 73.336 16.895 10.992 34.066 21.633 52.227 30.426 13.562 6.5625 27.535 12.359 41.996 16.656 16.613 4.9336 30.883 7.9141 41.066 8.5078 6.2969 0.36328 11.09-1.2383 14.453-4.1758zm-14.336 2.7266c-55.188-5.9023-105.16-41.461-151.57-69.145-14.738-8.793-35.934-20.328-42.914-37.23-6.6758-16.172 6.668-28.547 19.305-38.613 14.039-11.238 33.012-28.461 41.133-44.398 19.414 22.598 24.414 53.07 49.113 72.711 13.586 10.809 23.703 18.523 32.82 33.938 11.574 19.578 22.406 39.121 33.566 58.957 5.1367 9.1211 10.785 18.602 20.172 23.922-0.52344-0.035157-1.0625-0.078125-1.6211-0.14062z"/>
  <path d="m333.79 262.99c-2.4297-6.0859-9.8398-8.5234-15.266-11.07-9.3203-4.3672-18.793-10.746-27.508-16.223-4.4805-2.8164-8.6523-6.5312-12.957-9.6875-10.375-7.6055-19.723-16.496-28.746-25.648-17.574-17.824-34.227-37.039-55.535-50.586-12.797-8.1367-36.98-23.238-50.43-7.5039-12.578 14.867-1.5742 34.602 4.2891 49.812 6.8984 17.914 16.207 35.234 25.496 52.148 8.625 15.691 17.961 30.711 28.219 44.465 9.8906 13.125 21.172 26.266 35.066 35.211 12.398 7.9805 30.582 10.562 44.004 3.6055 19.105-9.8242 33.906-29.785 47.273-46.066 4.7656-5.7969 8.4766-12.492 6.0938-18.457zm-7.8477 16.973c-4.2891 8.1602-14.254 15.68-19.336 20.871-3.8477 3.9023-8.0352 7.9414-12.699 11.844-4.6758 3.8633-9.832 7.6367-15.645 10.496-5.8086 2.8242-12.383 4.5469-19.117 3.8125-6.668-0.67188-13.324-3.7812-19.465-7.9727-12.355-8.4961-23.219-20.777-33.305-34.098-27.691-36.59-50.902-82.02-62.898-126.25 2.3906 0.56641 4.9453 1.3203 7.4375 1.4492 15.188 0.76562 31.07 0.42578 44.566 8.2031 23.406 13.496 40.996 37.195 61.824 54.285 11.52 9.4531 26.477 20.164 40.762 26.836 9.1836 4.2891 21.996 7.4375 27.867 16.445 3.043 4.6875 2.4219 9.4805 0.007812 14.074z"/>
  <path d="m359.86 243.09c0.85547-2.2852 0.99609-4.8164 0.023438-7.6367-1.6445-4.7812-4.7695-8.9805-7.6367-13.094-4.1484-5.9531-9.5742-12.848-15.59-20.906-6.0273-8.0469-12.641-17.258-19.504-27.539-6.8555-10.281-14.016-21.621-21.133-33.852-7.1289-12.234-14.086-25.453-21.719-38.98-7.7266-13.699-31.91-54.008-52.121-48.906-4.5312 1.1484-8.4375 3.707-11.555 6.9727-1.5586 1.6406-2.9062 3.5039-3.9766 5.5625-0.95703 1.8633-1.8594 4.0312-2.5195 6.0703-2.7422 8.3555-2.8633 17.203-1.7852 25.594 3.4141 26.656 18.48 56.332 35.984 76.508 2.4883 2.8672 4.957 5.6992 7.6211 8.4688 5.207 5.5234 10.477 10.605 15.781 15.406 10.543 9.6328 20.906 18.246 30.613 25.977 5.7344 4.5859 11.543 9.082 17.406 13.5 5.0898 3.8359 10.09 7.5 14.973 11.602 4.7305 3.9766 10.664 9.0508 17.219 8.9414 6.6484-0.11328 15.711-7.8125 17.918-13.688zm-2.5508 0.67187c-1.0078 2.7539-3.1914 5.375-6.9961 7.7461-1.1797 0.72656-2.4766 1.4883-3.8711 2.207-1.3086 0.70703-2.8711 1.0859-4.4727 1.0117-3.2695-0.11328-6.4727-2.3984-9.75-5.1641-3.3711-2.7539-7.0156-5.7344-10.914-8.9141-7.7891-6.3633-16.48-13.648-25.895-21.648-32.699-27.789-55.16-48.332-68.602-90.551-3.6055-11.336-20.059-61.723 6.6523-58.535 13.715 1.6406 30.246 29.141 37.895 39.391 15.715 21.051 29.008 44.191 44.023 65.812 9.0664 13.059 17.922 26.695 27.754 39.172 6.3867 8.0977 17.766 19.648 14.176 29.473z"/>
  <use x="70" y="644" xlink:href="#t"/>
  <use x="90.550781" y="644" xlink:href="#a"/>
  <use x="104.359375" y="644" xlink:href="#d"/>
  <use x="123.347656" y="644" xlink:href="#c"/>
  <use x="142.242188" y="644" xlink:href="#b"/>
  <use x="155.628906" y="644" xlink:href="#d"/>
  <use x="174.617188" y="644" xlink:href="#k"/>
  <use x="204.410156" y="644" xlink:href="#j"/>
  <use x="224.453125" y="644" xlink:href="#i"/>
  <use x="252.453125" y="644" xlink:href="#f"/>
  <use x="280.3125" y="644" xlink:href="#c"/>
  <use x="299.210938" y="644" xlink:href="#a"/>
  <use x="313.015625" y="644" xlink:href="#b"/>
  <use x="326.402344" y="644" xlink:href="#c"/>
  <use x="355.046875" y="644" xlink:href="#f"/>
  <use x="382.90625" y="644" xlink:href="#c"/>
  <use x="401.804688" y="644" xlink:href="#a"/>
  <use x="415.609375" y="644" xlink:href="#s"/>
  <use x="425.210938" y="644" xlink:href="#h"/>
  <use x="445.140625" y="644" xlink:href="#g"/>
  <use x="465.078125" y="644" xlink:href="#e"/>
  <use x="70" y="672" xlink:href="#r"/>
  <use x="82.183594" y="672" xlink:href="#a"/>
  <use x="95.992188" y="672" xlink:href="#e"/>
  <use x="115.226562" y="672" xlink:href="#q"/>
  <use x="154.152344" y="672" xlink:href="#b"/>
  <use x="167.535156" y="672" xlink:href="#g"/>
  <use x="187.46875" y="672" xlink:href="#d"/>
  <use x="216.207031" y="672" xlink:href="#p"/>
  <use x="239.640625" y="672" xlink:href="#e"/>
  <use x="258.878906" y="672" xlink:href="#o"/>
  <use x="278.8125" y="672" xlink:href="#h"/>
  <use x="308.492188" y="672" xlink:href="#n"/>
  <use x="329.015625" y="672" xlink:href="#a"/>
  <use x="342.820312" y="672" xlink:href="#e"/>
  <use x="362.058594" y="672" xlink:href="#m"/>
  <use x="371.65625" y="672" xlink:href="#d"/>
  <use x="390.648438" y="672" xlink:href="#l"/>
  <use x="407.242188" y="672" xlink:href="#b"/>
 </g>
</svg>
